<svg viewBox="0 0 512 512" xmlns="http://www.w3.org/2000/svg"><path d="M403.974 127.885a96.789 96.789 0 0 0-136.881 0l-10.998 11-11.184-11.183a96.76 96.76 0 0 0-137.832 135.83h148.087a12.348 12.348 0 0 1 11.582 7.93l4.148 10.726 44.692-115.43a12.423 12.423 0 0 1 23.164 0l37.465 96.774h28.874a96.746 96.746 0 0 0-1.117-135.647Z" fill="#ffb700" class="fill-000000"></path><path d="M356.123 280.438 327.17 205.65l-44.688 115.43a12.426 12.426 0 0 1-23.168 0l-12.66-32.703H131.823l124.273 124.271 124.271-124.271H367.71a12.502 12.502 0 0 1-11.586-7.938Z" fill="#ffb700" class="fill-000000"></path></svg>